{"title":"SPONGEBOB SQUAREPANTS THE MOVIE IN XVID BY JOCKTHERIPPER@KIDZCOR","uid":5615816,"size":948034838,"categoryP":"video","categoryS":"movies","magnet":"?xt=urn:btih:f7bbaeec82961665adc7a2ed9700a7376a2b976c&amp;dn=SPONGEBOB+SQUAREPANTS+THE+MOVIE+IN+XVID+BY+JOCKTHERIPPER%40KIDZCOR&amp;tr=udp%3A%2F%2Ftracker.openbittorrent.com%3A80&amp;tr=udp%3A%2F%2Fopen.demonii.com%3A1337&amp;tr=udp%3A%2F%2Ftracker.coppersurfer.tk%3A6969&amp;tr=udp%3A%2F%2Fexodus.desync.com%3A6969","seeders":1,"leechers":0,"uploader":"alanwatson","files":-1,"time":1276063259,"description":"There's trouble brewing in Bikini Bottom. Someone has stolen King Neptune's crown, and it looks like Mr. Krab, SpongeBob's boss, is the culprit. Though he's just been passed over for the promotion of his dreams, SpongeBob stands by his boss, and along with his best pal Patrick, sets out on a treacherous mission to Shell City to reclaim the crown and save Mr. Krab's life.\n\nFormat : AVI\nFormat/Info : Audio Video Interleave\nFile size : 904 MiB\nDuration : 1h 23mn\nOverall bit rate : 1 512 Kbps\n\nVideo\nID : 0\nFormat : MPEG-4 Visual\nFormat profile : Simple@L3\nFormat settings, BVOP : No\nFormat settings, QPel : No\nFormat settings, GMC : No warppoints\nFormat settings, Matrix : Default (H.263)\nCodec ID : XVID\nCodec ID/Hint : XviD\nDuration : 1h 23mn\nBit rate : 1 053 Kbps\nWidth : 720 pixels\nHeight : 572 pixels\nDisplay aspect ratio : 16:9\nFrame rate : 25.000 fps\nResolution : 8 bits\nColorimetry : 4:2:0\nScan type : Progressive\nBits/(Pixel*Frame) : 0.102\nStream size : 630 MiB (70%)\nWriting library : XviD 1.1.2 (UTC 2006-11-01)\n\nAudio\nID : 1\nFormat : AC-3\nFormat/Info : Audio Coding 3\nCodec ID : 2000\nDuration : 1h 23mn\nBit rate mode : Constant\nBit rate : 448 Kbps\nChannel(s) : 6 channels\nChannel positions : Front: L C R, Surround: L R, LFE\nSampling rate : 48.0 KHz\nStream size : 268 MiB (30%)\nAlignment : Aligned on interleaves\nInterleave, duration : 32 ms (0.80 video frame)\nInterleave, preload duration : 64 ms","torrent":{"xt":"urn:btih:f7bbaeec82961665adc7a2ed9700a7376a2b976c","amp;dn":"SPONGEBOB+SQUAREPANTS+THE+MOVIE+IN+XVID+BY+JOCKTHERIPPER%40KIDZCOR","amp;tr":["udp%3A%2F%2Ftracker.openbittorrent.com%3A80","udp%3A%2F%2Fopen.demonii.com%3A1337","udp%3A%2F%2Ftracker.coppersurfer.tk%3A6969","udp%3A%2F%2Fexodus.desync.com%3A6969"],"infoHash":"f7bbaeec82961665adc7a2ed9700a7376a2b976c","infoHashBuffer":{"type":"Buffer","data":[247,187,174,236,130,150,22,101,173,199,162,237,151,0,167,55,106,43,151,108]},"announce":[],"urlList":[]}}